<svg id="Слой_2" data-name="Слой 2" xmlns="http://www.w3.org/2000/svg" viewBox="0 0 432.86 399.7"><defs><style>.cls-1{fill:#fff;}</style></defs><path class="cls-1" d="M209.94,452.93s-31.81-89,0-188.68S360.47,126.44,360.47,126.44s173.31-53.53,268.2,73.67l-89.58,63.08a131.68,131.68,0,0,0-116.61-43.46,122.81,122.81,0,0,0-58.83,17.49c-31.68,19.29-45,48-49.83,58.83-13,29.3-12.34,55.78-11.92,71.82a194.76,194.76,0,0,0,4.11,35Z" transform="translate(-195.8 -115.26)"/><path class="cls-1" d="M331.05,447.38a240.2,240.2,0,0,0,1.32-39.23c-1.69-34.73-10.17-51.17-1.32-70.49A53.21,53.21,0,0,1,348.54,317V294.73l-15.37.26a94.08,94.08,0,0,1,16.43-28.62c4.26-5.07,20-23.28,45.45-29.68,11.71-2.94,14.28-.63,56.05-.4,11.24.06,20.44-.07,26.44-.2l19.08,12.13v11.52l-16.1.6-1,22.86,25.24-.2A125.85,125.85,0,0,1,525,311.42a104.3,104.3,0,0,1,10.34,27.43,100.16,100.16,0,0,1,.79,37.77H506.76l-1.59,23.05h33.39V515H475S446,445.06,331.05,447.38Z" transform="translate(-195.8 -115.26)"/></svg>